<?xml version="1.0" encoding="UTF-8"?>
<!DOCTYPE svg PUBLIC "-//W3C//DTD SVG 1.1//EN" "http://www.w3.org/Graphics/SVG/1.1/DTD/svg11.dtd">
<svg xmlns="http://www.w3.org/2000/svg" version="1.1" width="160px" height="229px" style="shape-rendering:geometricPrecision; text-rendering:geometricPrecision; image-rendering:optimizeQuality; fill-rule:evenodd; clip-rule:evenodd" xmlns:xlink="http://www.w3.org/1999/xlink">
<g><path style="opacity:0.004" fill="#fefffe" d="M 11.5,-0.5 C 11.8333,-0.5 12.1667,-0.5 12.5,-0.5C 12.3147,0.170143 11.9813,0.170143 11.5,-0.5 Z"/></g>
<g><path style="opacity:0.004" fill="#fefffe" d="M 91.5,1.5 C 92.8333,2.16667 92.8333,2.16667 91.5,1.5 Z"/></g>
<g><path style="opacity:0.004" fill="#fefffe" d="M 65.5,10.5 C 66.8333,11.1667 66.8333,11.1667 65.5,10.5 Z"/></g>
<g><path style="opacity:0.004" fill="#fefffe" d="M 82.5,10.5 C 83.8333,11.1667 83.8333,11.1667 82.5,10.5 Z"/></g>
<g><path style="opacity:0.004" fill="#fefffe" d="M 89.5,13.5 C 89.8966,12.475 90.5632,12.3083 91.5,13C 90.9056,13.4643 90.2389,13.631 89.5,13.5 Z"/></g>
<g><path style="opacity:1" fill="#224730" d="M 59.5,31.5 C 58.0222,31.762 56.6888,31.4287 55.5,30.5C 53.8858,27.7156 51.5524,25.8823 48.5,25C 42.9943,23.1321 37.3277,21.9654 31.5,21.5C 29.8333,21.8333 28.1667,22.1667 26.5,22.5C 25.715,30.4567 25.715,38.4567 26.5,46.5C 23.5006,37.7988 22.8339,28.7988 24.5,19.5C 36.4335,19.1127 47.1001,21.946 56.5,28C 57.7101,29.0391 58.7101,30.2058 59.5,31.5 Z"/></g>
<g><path style="opacity:0.004" fill="#fefffe" d="M 60.5,23.5 C 61.8333,24.1667 61.8333,24.1667 60.5,23.5 Z"/></g>
<g><path style="opacity:0.004" fill="#fefffe" d="M 21.5,26.5 C 22.8333,27.1667 22.8333,27.1667 21.5,26.5 Z"/></g>
<g><path style="opacity:1" fill="#205132" d="M 59.5,31.5 C 65.2638,35.644 69.0971,41.3107 71,48.5C 73.0994,55.2334 72.9327,61.9001 70.5,68.5C 63.856,57.3462 55.5227,47.5129 45.5,39C 44.8333,38.3333 44.1667,38.3333 43.5,39C 53.2411,48.671 61.9077,59.171 69.5,70.5C 54.5102,75.8975 42.0102,72.2308 32,59.5C 29.2888,55.5318 27.4555,51.1985 26.5,46.5C 25.715,38.4567 25.715,30.4567 26.5,22.5C 28.1667,22.1667 29.8333,21.8333 31.5,21.5C 37.3277,21.9654 42.9943,23.1321 48.5,25C 51.5524,25.8823 53.8858,27.7156 55.5,30.5C 56.6888,31.4287 58.0222,31.762 59.5,31.5 Z"/></g>
<g><path style="opacity:0.004" fill="#fefffe" d="M 18.5,36.5 C 19.8333,37.1667 19.8333,37.1667 18.5,36.5 Z"/></g>
<g><path style="opacity:1" fill="#205131" d="M 123.5,1.5 C 129.5,1.5 135.5,1.5 141.5,1.5C 145.402,27.6501 137.069,48.8167 116.5,65C 105.497,71.1895 93.8302,73.1895 81.5,71C 98.062,58.4617 111.229,43.295 121,25.5C 108.045,41.456 94.0446,56.456 79,70.5C 68.0505,41.2183 76.8838,20.0517 105.5,7C 111.524,4.82215 117.524,2.98881 123.5,1.5 Z"/></g>
<g><path style="opacity:0.004" fill="#fefffe" d="M 22.5,41.5 C 23.8333,42.1667 23.8333,42.1667 22.5,41.5 Z"/></g>
<g><path style="opacity:0.004" fill="#fefffe" d="M 8.5,46.5 C 9.83333,47.1667 9.83333,47.1667 8.5,46.5 Z"/></g>
<g><path style="opacity:0.004" fill="#fefffe" d="M 10.5,51.5 C 11.8333,52.1667 11.8333,52.1667 10.5,51.5 Z"/></g>
<g><path style="opacity:0.004" fill="#fefffe" d="M 149.5,58.5 C 150.833,59.1667 150.833,59.1667 149.5,58.5 Z"/></g>
<g><path style="opacity:0.004" fill="#fefffe" d="M 157.5,59.5 C 158.833,60.1667 158.833,60.1667 157.5,59.5 Z"/></g>
<g><path style="opacity:0.004" fill="#fefffe" d="M 35.5,68.5 C 36.8333,69.1667 36.8333,69.1667 35.5,68.5 Z"/></g>
<g><path style="opacity:0.004" fill="#fefffe" d="M 122.5,68.5 C 123.833,69.1667 123.833,69.1667 122.5,68.5 Z"/></g>
<g><path style="opacity:0.004" fill="#fefffe" d="M 37.5,69.5 C 38.8333,70.1667 38.8333,70.1667 37.5,69.5 Z"/></g>
<g><path style="opacity:1" fill="#20482f" d="M 118.5,88.5 C 111.461,85.9747 104.461,83.4747 97.5,81C 91.8176,80.2481 86.1509,79.4148 80.5,78.5C 73.2066,79.5873 65.8733,80.2539 58.5,80.5C 79.6734,74.4911 99.6734,77.1578 118.5,88.5 Z"/></g>
<g><path style="opacity:0.004" fill="#fefffe" d="M 13.5,88.5 C 14.8333,89.1667 14.8333,89.1667 13.5,88.5 Z"/></g>
<g><path style="opacity:0.004" fill="#fefffe" d="M 5.5,90.5 C 6.83333,91.1667 6.83333,91.1667 5.5,90.5 Z"/></g>
<g><path style="opacity:1" fill="#5eaa15" d="M 87.5,89.5 C 90.2372,89.4013 92.9039,89.7347 95.5,90.5C 109.671,94.8504 121.504,102.85 131,114.5C 132.306,117.621 134.14,120.287 136.5,122.5C 138.353,128.726 140.353,134.726 142.5,140.5C 144.449,155.754 141.782,170.087 134.5,183.5C 133.662,183.842 133.328,184.508 133.5,185.5C 131.833,187.5 130.167,189.5 128.5,191.5C 128.5,190.5 128.5,189.5 128.5,188.5C 126.738,188.357 125.071,188.691 123.5,189.5C 121.979,188.063 120.145,187.396 118,187.5C 113.55,188.742 109.05,189.242 104.5,189C 99.838,186.031 97.338,181.864 97,176.5C 95.8197,177.684 94.3197,178.351 92.5,178.5C 90.9549,178.489 89.6216,178.156 88.5,177.5C 91.8306,177.982 94.4973,176.982 96.5,174.5C 99.6438,167.991 100.977,160.991 100.5,153.5C 100.694,147.021 99.8602,140.688 98,134.5C 95.0913,131.606 91.5913,130.773 87.5,132C 85.8717,135.603 85.0384,139.437 85,143.5C 83.7237,140.401 81.8903,137.734 79.5,135.5C 79.1667,134.5 78.5,133.833 77.5,133.5C 75.3718,132.371 73.0385,132.204 70.5,133C 69,135.167 67.5,137.333 66,139.5C 65.3333,149.833 65.3333,160.167 66,170.5C 66.9135,176.636 70.0802,178.636 75.5,176.5C 77.4171,175.884 78.5838,174.55 79,172.5C 78.7915,158.29 80.2915,157.957 83.5,171.5C 82.5041,171.586 81.6708,171.252 81,170.5C 80.9154,174.471 79.9154,178.138 78,181.5C 75.6374,179.093 73.1374,178.926 70.5,181C 72.9659,181.93 72.7993,182.763 70,183.5C 67.5282,182.258 65.0282,181.092 62.5,180C 63.7588,179.077 65.0921,178.243 66.5,177.5C 64.2173,176.865 62.5507,175.532 61.5,173.5C 60.0179,169.656 59.1845,165.656 59,161.5C 58.0615,164.121 57.2281,166.788 56.5,169.5C 55.914,169.291 55.414,168.957 55,168.5C 53.583,170.398 52.083,172.064 50.5,173.5C 50.5,172.833 50.5,172.167 50.5,171.5C 54.1187,165.331 56.7853,158.664 58.5,151.5C 61.4649,145.763 61.9649,139.763 60,133.5C 56.9502,129.87 53.1169,128.703 48.5,130C 47.6195,130.708 46.9528,131.542 46.5,132.5C 44.0947,135.701 42.4281,139.367 41.5,143.5C 40.7291,139.028 39.0625,135.028 36.5,131.5C 34.0314,130.683 31.3647,130.183 28.5,130C 29.8333,129.333 29.8333,128.667 28.5,128C 27.0494,128.263 25.7161,128.096 24.5,127.5C 25.3812,124.07 26.5479,120.737 28,117.5C 29.2682,117.384 30.6015,117.051 32,116.5C 32.4955,114.527 32.6621,112.527 32.5,110.5C 38.8979,102.81 46.5646,96.8102 55.5,92.5C 58.3725,92.1977 61.0392,91.531 63.5,90.5C 71.4827,89.8345 79.4827,89.5012 87.5,89.5 Z"/></g>
<g><path style="opacity:0.004" fill="#fefffe" d="M 9.5,93.5 C 10.8333,94.1667 10.8333,94.1667 9.5,93.5 Z"/></g>
<g><path style="opacity:1" fill="#205132" d="M 118.5,88.5 C 145.327,106.163 157.161,131.163 154,163.5C 151.736,178.512 145.569,191.512 135.5,202.5C 137.577,199.911 138.91,196.911 139.5,193.5C 137.567,190.82 136.067,188.153 135,185.5C 136.418,188.001 137.418,187.668 138,184.5C 138.923,185.759 139.757,187.092 140.5,188.5C 141.76,186.647 141.76,184.814 140.5,183C 141.83,183.077 143.164,183.577 144.5,184.5C 145.647,184.182 146.481,183.516 147,182.5C 149.047,172.369 150.547,161.869 151.5,151C 151.443,145.384 150.61,139.884 149,134.5C 148.333,133.167 147.667,133.167 147,134.5C 145.767,144.775 145.1,155.108 145,165.5C 143.887,166.76 143.72,167.927 144.5,169C 143.906,169.464 143.239,169.631 142.5,169.5C 143.481,163.731 144.147,157.898 144.5,152C 144.49,147.771 143.823,143.938 142.5,140.5C 140.353,134.726 138.353,128.726 136.5,122.5C 136.892,119.278 136.392,116.278 135,113.5C 132.67,116.182 132.17,115.849 133.5,112.5C 132.478,111.646 131.645,110.646 131,109.5C 130.586,109.957 130.086,110.291 129.5,110.5C 128.719,109.271 128.219,107.938 128,106.5C 125.197,104.698 123.031,102.365 121.5,99.5C 119.929,98.6906 118.262,98.3573 116.5,98.5C 116.578,95.5133 115.411,94.8466 113,96.5C 107.484,93.3841 101.651,91.3841 95.5,90.5C 86.2702,83.7476 75.9368,82.0809 64.5,85.5C 61.1734,85.519 58.0067,84.8523 55,83.5C 52.8154,83.9212 50.6487,84.4212 48.5,85C 48.0426,85.414 47.7093,85.914 47.5,86.5C 50.5063,87.7485 53.5063,87.7485 56.5,86.5C 57.9122,87.8064 59.5789,88.6397 61.5,89C 59.2726,89.941 57.2726,91.1077 55.5,92.5C 46.5646,96.8102 38.8979,102.81 32.5,110.5C 29.8695,113.468 27.2029,116.468 24.5,119.5C 23.168,117.868 21.8347,116.201 20.5,114.5C 19.7132,115.242 19.0465,116.075 18.5,117C 19.9561,117.423 20.4561,118.256 20,119.5C 19.6667,119.167 19.3333,118.833 19,118.5C 17.8904,120.037 16.3904,120.703 14.5,120.5C 14.6495,121.552 14.4828,122.552 14,123.5C 13.6667,123.167 13.3333,122.833 13,122.5C 12.5,123.667 11.6667,124.5 10.5,125C 13.0142,127.096 13.6808,129.596 12.5,132.5C 10.3733,130.383 10.04,131.049 11.5,134.5C 10.2815,134.109 9.4482,134.776 9,136.5C 8.33333,141.167 7.66667,145.833 7,150.5C 6.66667,148.5 6.33333,146.5 6,144.5C 5.08754,153.752 5.58754,162.918 7.5,172C 7.47196,173.07 7.13863,173.903 6.5,174.5C -1.45214,139.851 8.54786,111.684 36.5,90C 43.2531,85.4559 50.5865,82.2893 58.5,80.5C 65.8733,80.2539 73.2066,79.5873 80.5,78.5C 86.1509,79.4148 91.8176,80.2481 97.5,81C 104.461,83.4747 111.461,85.9747 118.5,88.5 Z"/></g>
<g><path style="opacity:1" fill="#20542c" d="M 95.5,90.5 C 92.9039,89.7347 90.2372,89.4013 87.5,89.5C 84.5185,88.8351 81.3518,88.5018 78,88.5C 72.9104,88.3437 68.0771,89.0103 63.5,90.5C 61.0392,91.531 58.3725,92.1977 55.5,92.5C 57.2726,91.1077 59.2726,89.941 61.5,89C 59.5789,88.6397 57.9122,87.8064 56.5,86.5C 53.5063,87.7485 50.5063,87.7485 47.5,86.5C 47.7093,85.914 48.0426,85.414 48.5,85C 50.6487,84.4212 52.8154,83.9212 55,83.5C 58.0067,84.8523 61.1734,85.519 64.5,85.5C 75.9368,82.0809 86.2702,83.7476 95.5,90.5 Z"/></g>
<g><path style="opacity:1" fill="#417d29" d="M 87.5,89.5 C 79.4827,89.5012 71.4827,89.8345 63.5,90.5C 68.0771,89.0103 72.9104,88.3437 78,88.5C 81.3518,88.5018 84.5185,88.8351 87.5,89.5 Z"/></g>
<g><path style="opacity:0.004" fill="#fefffe" d="M 6.5,97.5 C 7.83333,98.1667 7.83333,98.1667 6.5,97.5 Z"/></g>
<g><path style="opacity:0.004" fill="#fefffe" d="M 17.5,99.5 C 18.8333,100.167 18.8333,100.167 17.5,99.5 Z"/></g>
<g><path style="opacity:0.004" fill="#fefffe" d="M 4.5,107.5 C 5.83333,108.167 5.83333,108.167 4.5,107.5 Z"/></g>
<g><path style="opacity:1" fill="#215827" d="M 95.5,90.5 C 101.651,91.3841 107.484,93.3841 113,96.5C 115.411,94.8466 116.578,95.5133 116.5,98.5C 118.262,98.3573 119.929,98.6906 121.5,99.5C 123.031,102.365 125.197,104.698 128,106.5C 128.219,107.938 128.719,109.271 129.5,110.5C 130.086,110.291 130.586,109.957 131,109.5C 131.645,110.646 132.478,111.646 133.5,112.5C 132.17,115.849 132.67,116.182 135,113.5C 136.392,116.278 136.892,119.278 136.5,122.5C 134.14,120.287 132.306,117.621 131,114.5C 121.504,102.85 109.671,94.8504 95.5,90.5 Z"/></g>
<g><path style="opacity:1" fill="#5da621" d="M 32.5,110.5 C 32.6621,112.527 32.4955,114.527 32,116.5C 30.6015,117.051 29.2682,117.384 28,117.5C 26.5479,120.737 25.3812,124.07 24.5,127.5C 25.7161,128.096 27.0494,128.263 28.5,128C 29.8333,128.667 29.8333,129.333 28.5,130C 31.3647,130.183 34.0314,130.683 36.5,131.5C 31.365,130.426 27.5317,132.093 25,136.5C 24.1881,140.689 24.3547,144.689 25.5,148.5C 25.3253,150.621 25.6586,152.621 26.5,154.5C 26.5,156.167 26.5,157.833 26.5,159.5C 24.3002,154.807 22.9669,149.64 22.5,144C 22.6667,141.833 22.8333,139.667 23,137.5C 23.3176,135.939 24.1509,134.772 25.5,134C 24.8333,133.667 24.1667,133.333 23.5,133C 24.731,131.817 24.731,130.651 23.5,129.5C 22.8333,130.167 22.1667,130.833 21.5,131.5C 18.4001,143.365 17.7334,155.365 19.5,167.5C 18.1127,165.123 17.2794,162.457 17,159.5C 16.5006,154.177 16.334,148.844 16.5,143.5C 18.2864,135.275 20.9531,127.275 24.5,119.5C 27.2029,116.468 29.8695,113.468 32.5,110.5 Z"/></g>
<g><path style="opacity:1" fill="#25601f" d="M 58.5,151.5 C 59.0751,145.833 59.2417,140.167 59,134.5C 55.2014,131.625 51.0347,130.958 46.5,132.5C 46.9528,131.542 47.6195,130.708 48.5,130C 53.1169,128.703 56.9502,129.87 60,133.5C 61.9649,139.763 61.4649,145.763 58.5,151.5 Z"/></g>
<g><path style="opacity:1" fill="#205331" d="M 24.5,119.5 C 20.9531,127.275 18.2864,135.275 16.5,143.5C 15.1883,145.743 14.5217,148.41 14.5,151.5C 14.6667,154.167 14.8333,156.833 15,159.5C 17.3439,166.293 18.8439,173.293 19.5,180.5C 20.5,180.5 21.5,180.5 22.5,180.5C 22.762,181.978 22.4287,183.311 21.5,184.5C 20.2638,183.754 18.9305,183.421 17.5,183.5C 17.2308,185.429 17.7308,187.095 19,188.5C 19.3333,188.167 19.6667,187.833 20,187.5C 21.9718,189.432 24.1384,189.932 26.5,189C 23.7446,190.711 21.4113,192.878 19.5,195.5C 21.044,201.841 24.3773,203.007 29.5,199C 29.1667,198.667 28.8333,198.333 28.5,198C 29.5,197.833 30.5,197.667 31.5,197.5C 34.2731,199.107 37.2731,200.441 40.5,201.5C 58.2989,214.744 77.9656,218.244 99.5,212C 105.276,209.25 110.942,206.417 116.5,203.5C 117.922,203.291 119.255,202.791 120.5,202C 123.393,198.604 126.726,195.771 130.5,193.5C 131.572,190.796 132.572,188.13 133.5,185.5C 133.328,184.508 133.662,183.842 134.5,183.5C 136.433,182.358 137.933,180.692 139,178.5C 139.719,175.26 140.885,172.26 142.5,169.5C 143.239,169.631 143.906,169.464 144.5,169C 143.72,167.927 143.887,166.76 145,165.5C 145.1,155.108 145.767,144.775 147,134.5C 147.667,133.167 148.333,133.167 149,134.5C 150.61,139.884 151.443,145.384 151.5,151C 150.547,161.869 149.047,172.369 147,182.5C 146.481,183.516 145.647,184.182 144.5,184.5C 143.164,183.577 141.83,183.077 140.5,183C 141.76,184.814 141.76,186.647 140.5,188.5C 139.757,187.092 138.923,185.759 138,184.5C 137.418,187.668 136.418,188.001 135,185.5C 136.067,188.153 137.567,190.82 139.5,193.5C 138.91,196.911 137.577,199.911 135.5,202.5C 131.722,207.617 127.055,211.617 121.5,214.5C 115.673,217.579 109.673,220.412 103.5,223C 98.0244,224.732 92.3577,225.899 86.5,226.5C 85.2867,226.747 84.62,227.414 84.5,228.5C 80.1667,228.5 75.8333,228.5 71.5,228.5C 58.9623,226.741 47.2956,222.407 36.5,215.5C 21.9333,205.254 11.9333,191.587 6.5,174.5C 7.13863,173.903 7.47196,173.07 7.5,172C 5.58754,162.918 5.08754,153.752 6,144.5C 6.33333,146.5 6.66667,148.5 7,150.5C 7.66667,145.833 8.33333,141.167 9,136.5C 9.4482,134.776 10.2815,134.109 11.5,134.5C 10.04,131.049 10.3733,130.383 12.5,132.5C 13.6808,129.596 13.0142,127.096 10.5,125C 11.6667,124.5 12.5,123.667 13,122.5C 13.3333,122.833 13.6667,123.167 14,123.5C 14.4828,122.552 14.6495,121.552 14.5,120.5C 16.3904,120.703 17.8904,120.037 19,118.5C 19.3333,118.833 19.6667,119.167 20,119.5C 20.4561,118.256 19.9561,117.423 18.5,117C 19.0465,116.075 19.7132,115.242 20.5,114.5C 21.8347,116.201 23.168,117.868 24.5,119.5 Z"/></g>
<g><path style="opacity:1" fill="#2a651f" d="M 36.5,131.5 C 39.0625,135.028 40.7291,139.028 41.5,143.5C 42.4281,139.367 44.0947,135.701 46.5,132.5C 44.9957,138.877 43.4957,145.21 42,151.5C 40.1729,147.719 39.1729,143.719 39,139.5C 35.746,132.251 31.4126,131.584 26,137.5C 25.5014,141.152 25.3347,144.818 25.5,148.5C 24.3547,144.689 24.1881,140.689 25,136.5C 27.5317,132.093 31.365,130.426 36.5,131.5 Z"/></g>
<g><path style="opacity:1" fill="#205432" d="M 58.5,151.5 C 56.7853,158.664 54.1187,165.331 50.5,171.5C 48.6159,171.712 47.2826,172.712 46.5,174.5C 45.5017,170.458 43.1684,169.124 39.5,170.5C 40.9501,171.85 41.6168,173.516 41.5,175.5C 37.8384,176.363 35.6718,175.03 35,171.5C 34,170.833 33,170.167 32,169.5C 29.5009,165.168 28.1676,160.501 28,155.5C 27.6174,154.944 27.1174,154.611 26.5,154.5C 25.6586,152.621 25.3253,150.621 25.5,148.5C 25.3347,144.818 25.5014,141.152 26,137.5C 31.4126,131.584 35.746,132.251 39,139.5C 39.1729,143.719 40.1729,147.719 42,151.5C 43.4957,145.21 44.9957,138.877 46.5,132.5C 51.0347,130.958 55.2014,131.625 59,134.5C 59.2417,140.167 59.0751,145.833 58.5,151.5 Z"/></g>
<g><path style="opacity:1" fill="#3e7c27" d="M 111.5,131.5 C 111.5,131.833 111.5,132.167 111.5,132.5C 108.687,132.025 106.687,133.025 105.5,135.5C 104.508,143.316 104.174,151.316 104.5,159.5C 103.343,151.344 103.177,143.01 104,134.5C 105.848,131.959 108.348,130.959 111.5,131.5 Z"/></g>
<g><path style="opacity:1" fill="#215925" d="M 111.5,132.5 C 111.5,132.167 111.5,131.833 111.5,131.5C 121.793,130.62 128.959,134.953 133,144.5C 133.816,149.684 133.65,154.684 132.5,159.5C 132.823,155.774 132.489,152.107 131.5,148.5C 130.066,146.78 129.233,144.78 129,142.5C 127.053,141.89 125.219,141.057 123.5,140C 124.308,139.692 124.975,139.192 125.5,138.5C 122.161,133.603 117.494,131.603 111.5,132.5 Z"/></g>
<g><path style="opacity:1" fill="#205431" d="M 96.5,174.5 C 94.4973,176.982 91.8306,177.982 88.5,177.5C 86.8333,175.5 85.1667,173.5 83.5,171.5C 80.2915,157.957 78.7915,158.29 79,172.5C 78.5838,174.55 77.4171,175.884 75.5,176.5C 70.4609,176.968 67.6276,174.635 67,169.5C 66.3333,160.167 66.3333,150.833 67,141.5C 68.3205,135.769 71.8205,133.103 77.5,133.5C 78.5,133.833 79.1667,134.5 79.5,135.5C 81.7197,138.765 82.8864,142.432 83,146.5C 84,147.5 85,148.5 86,149.5C 86.1415,143.674 86.9749,138.008 88.5,132.5C 91.9343,132.03 94.601,133.196 96.5,136C 94.8466,138.411 95.5133,139.578 98.5,139.5C 98.8842,151.257 98.2175,162.924 96.5,174.5 Z"/></g>
<g><path style="opacity:1" fill="#205432" d="M 111.5,132.5 C 117.494,131.603 122.161,133.603 125.5,138.5C 124.975,139.192 124.308,139.692 123.5,140C 125.219,141.057 127.053,141.89 129,142.5C 129.233,144.78 130.066,146.78 131.5,148.5C 132.489,152.107 132.823,155.774 132.5,159.5C 132.309,163.663 130.643,166.996 127.5,169.5C 123.488,168.887 121.488,170.554 121.5,174.5C 116.5,174.5 111.5,174.5 106.5,174.5C 105.599,161.526 105.265,148.526 105.5,135.5C 106.687,133.025 108.687,132.025 111.5,132.5 Z"/></g>
<g><path style="opacity:1" fill="#26601e" d="M 119.5,146.5 C 122.886,149.629 123.386,153.295 121,157.5C 119.54,160.21 117.54,160.876 115,159.5C 114.333,155.167 114.333,150.833 115,146.5C 116.616,145.199 118.116,145.199 119.5,146.5 Z"/></g>
<g><path style="opacity:1" fill="#61a628" d="M 119.5,146.5 C 120.728,150.15 120.728,153.816 119.5,157.5C 118.5,157.5 117.5,157.5 116.5,157.5C 116.5,153.833 116.5,150.167 116.5,146.5C 117.5,146.5 118.5,146.5 119.5,146.5 Z"/></g>
<g><path style="opacity:1" fill="#215d1b" d="M 77.5,133.5 C 71.8205,133.103 68.3205,135.769 67,141.5C 66.3333,150.833 66.3333,160.167 67,169.5C 67.6276,174.635 70.4609,176.968 75.5,176.5C 70.0802,178.636 66.9135,176.636 66,170.5C 65.3333,160.167 65.3333,149.833 66,139.5C 67.5,137.333 69,135.167 70.5,133C 73.0385,132.204 75.3718,132.371 77.5,133.5 Z"/></g>
<g><path style="opacity:1" fill="#205a21" d="M 142.5,140.5 C 143.823,143.938 144.49,147.771 144.5,152C 144.147,157.898 143.481,163.731 142.5,169.5C 140.885,172.26 139.719,175.26 139,178.5C 137.933,180.692 136.433,182.358 134.5,183.5C 141.782,170.087 144.449,155.754 142.5,140.5 Z"/></g>
<g><path style="opacity:1" fill="#215826" d="M 26.5,154.5 C 27.1174,154.611 27.6174,154.944 28,155.5C 28.1676,160.501 29.5009,165.168 32,169.5C 33,170.167 34,170.833 35,171.5C 35.6718,175.03 37.8384,176.363 41.5,175.5C 41.6168,173.516 40.9501,171.85 39.5,170.5C 43.1684,169.124 45.5017,170.458 46.5,174.5C 47.2826,172.712 48.6159,171.712 50.5,171.5C 50.5,172.167 50.5,172.833 50.5,173.5C 44.0421,179.09 37.8755,178.757 32,172.5C 30.0413,168.096 28.208,163.762 26.5,159.5C 26.5,157.833 26.5,156.167 26.5,154.5 Z"/></g>
<g><path style="opacity:1" fill="#5eab14" d="M 26.5,159.5 C 28.208,163.762 30.0413,168.096 32,172.5C 37.8755,178.757 44.0421,179.09 50.5,173.5C 52.083,172.064 53.583,170.398 55,168.5C 55.414,168.957 55.914,169.291 56.5,169.5C 57.2281,166.788 58.0615,164.121 59,161.5C 59.1845,165.656 60.0179,169.656 61.5,173.5C 62.5507,175.532 64.2173,176.865 66.5,177.5C 65.0921,178.243 63.7588,179.077 62.5,180C 65.0282,181.092 67.5282,182.258 70,183.5C 72.7993,182.763 72.9659,181.93 70.5,181C 73.1374,178.926 75.6374,179.093 78,181.5C 79.9154,178.138 80.9154,174.471 81,170.5C 81.6708,171.252 82.5041,171.586 83.5,171.5C 85.1667,173.5 86.8333,175.5 88.5,177.5C 89.6216,178.156 90.9549,178.489 92.5,178.5C 94.3197,178.351 95.8197,177.684 97,176.5C 97.338,181.864 99.838,186.031 104.5,189C 109.05,189.242 113.55,188.742 118,187.5C 120.145,187.396 121.979,188.063 123.5,189.5C 125.071,188.691 126.738,188.357 128.5,188.5C 128.5,189.5 128.5,190.5 128.5,191.5C 124.833,195.833 120.833,199.833 116.5,203.5C 110.942,206.417 105.276,209.25 99.5,212C 77.9656,218.244 58.2989,214.744 40.5,201.5C 29.44,192.721 22.44,181.387 19.5,167.5C 17.7334,155.365 18.4001,143.365 21.5,131.5C 22.1667,130.833 22.8333,130.167 23.5,129.5C 24.731,130.651 24.731,131.817 23.5,133C 24.1667,133.333 24.8333,133.667 25.5,134C 24.1509,134.772 23.3176,135.939 23,137.5C 22.8333,139.667 22.6667,141.833 22.5,144C 22.9669,149.64 24.3002,154.807 26.5,159.5 Z"/></g>
<g><path style="opacity:1" fill="#245e1f" d="M 96.5,174.5 C 98.2175,162.924 98.8842,151.257 98.5,139.5C 95.5133,139.578 94.8466,138.411 96.5,136C 94.601,133.196 91.9343,132.03 88.5,132.5C 86.9749,138.008 86.1415,143.674 86,149.5C 85,148.5 84,147.5 83,146.5C 82.8864,142.432 81.7197,138.765 79.5,135.5C 81.8903,137.734 83.7237,140.401 85,143.5C 85.0384,139.437 85.8717,135.603 87.5,132C 91.5913,130.773 95.0913,131.606 98,134.5C 99.8602,140.688 100.694,147.021 100.5,153.5C 100.977,160.991 99.6438,167.991 96.5,174.5 Z"/></g>
<g><path style="opacity:1" fill="#215922" d="M 105.5,135.5 C 105.265,148.526 105.599,161.526 106.5,174.5C 111.5,174.5 116.5,174.5 121.5,174.5C 121.488,170.554 123.488,168.887 127.5,169.5C 122.929,177.434 116.262,179.601 107.5,176C 106.151,175.228 105.318,174.061 105,172.5C 104.501,168.179 104.334,163.846 104.5,159.5C 104.174,151.316 104.508,143.316 105.5,135.5 Z"/></g>
<g><path style="opacity:1" fill="#20562b" d="M 16.5,143.5 C 16.334,148.844 16.5006,154.177 17,159.5C 17.2794,162.457 18.1127,165.123 19.5,167.5C 22.44,181.387 29.44,192.721 40.5,201.5C 37.2731,200.441 34.2731,199.107 31.5,197.5C 30.5,197.667 29.5,197.833 28.5,198C 28.8333,198.333 29.1667,198.667 29.5,199C 24.3773,203.007 21.044,201.841 19.5,195.5C 21.4113,192.878 23.7446,190.711 26.5,189C 24.1384,189.932 21.9718,189.432 20,187.5C 19.6667,187.833 19.3333,188.167 19,188.5C 17.7308,187.095 17.2308,185.429 17.5,183.5C 18.9305,183.421 20.2638,183.754 21.5,184.5C 22.4287,183.311 22.762,181.978 22.5,180.5C 21.5,180.5 20.5,180.5 19.5,180.5C 18.8439,173.293 17.3439,166.293 15,159.5C 14.8333,156.833 14.6667,154.167 14.5,151.5C 14.5217,148.41 15.1883,145.743 16.5,143.5 Z"/></g>
<g><path style="opacity:0.004" fill="#fefffe" d="M 10.5,193.5 C 11.8333,194.167 11.8333,194.167 10.5,193.5 Z"/></g>
<g><path style="opacity:1" fill="#215b1e" d="M 133.5,185.5 C 132.572,188.13 131.572,190.796 130.5,193.5C 126.726,195.771 123.393,198.604 120.5,202C 119.255,202.791 117.922,203.291 116.5,203.5C 120.833,199.833 124.833,195.833 128.5,191.5C 130.167,189.5 131.833,187.5 133.5,185.5 Z"/></g>
<g><path style="opacity:0.004" fill="#fefffe" d="M 21.5,204.5 C 22.8333,205.167 22.8333,205.167 21.5,204.5 Z"/></g>
<g><path style="opacity:0.004" fill="#fefffe" d="M 36.5,215.5 C 35.8333,216.167 35.8333,216.167 36.5,215.5 Z"/></g>
<g><path style="opacity:0.835" fill="#1b3f29" d="M 121.5,214.5 C 117.397,218.061 112.73,220.894 107.5,223C 100.491,225.334 93.4912,227.167 86.5,228.5C 85.8333,228.5 85.1667,228.5 84.5,228.5C 84.62,227.414 85.2867,226.747 86.5,226.5C 92.3577,225.899 98.0244,224.732 103.5,223C 109.673,220.412 115.673,217.579 121.5,214.5 Z"/></g>
</svg>
